<svg width="358" height="265" viewBox="0 0 358 265" fill="none" xmlns="http://www.w3.org/2000/svg">
<path d="M242.988 -116.03C262.485 -76.441 229.207 -76.8166 256.988 -42.5295C295.734 5.28975 346.715 -65.573 397.988 -31.5295C459.478 9.29716 458.016 114.523 397.988 157.47C337.206 200.958 314.378 109.595 256.988 157.47C210.973 195.856 249.633 209.977 200.988 244.97C151.24 280.758 76.5479 262.452 48.488 207.97C19.0133 150.742 66.185 131.863 48.488 69.9705C32.7348 14.8757 19.9293 23.3639 3.48805 -31.5295C-24.969 -126.541 199.168 -205.005 242.988 -116.03Z" stroke="#00509D" stroke-width="2"/>
<path d="M237.073 -65.7414C250.333 -38.0205 227.7 -38.2835 246.595 -14.2748C272.947 19.2095 307.621 -30.4104 342.494 -6.5723C384.315 22.0156 383.321 95.6975 342.494 125.77C301.154 156.221 285.628 92.2471 246.595 125.77C215.298 152.649 241.592 162.537 208.507 187.04C174.672 212.099 123.871 199.281 104.786 161.132C84.7395 121.059 116.823 107.839 104.786 64.5006C94.072 25.9218 85.3625 31.8655 74.1802 -6.5723C54.8256 -73.1016 207.269 -128.045 237.073 -65.7414Z" stroke="#00509D" stroke-width="2"/>
<path d="M239.24 -83.271C255.012 -51.0087 228.092 -51.3148 250.565 -23.373C281.908 15.5968 323.148 -42.152 364.625 -14.4087C414.365 18.8626 413.183 104.615 364.625 139.615C315.456 175.054 296.99 100.6 250.565 139.615C213.342 170.897 244.615 182.404 205.265 210.922C165.022 240.086 104.601 225.168 81.9027 180.769C58.0596 134.131 96.2183 118.746 81.9027 68.3076C69.1593 23.4088 58.8006 30.3261 45.5007 -14.4087C22.4809 -91.8369 203.793 -155.781 239.24 -83.271Z" stroke="#00509D" stroke-width="2"/>
</svg>
