<svg width="445" height="338" viewBox="0 0 445 338" fill="none" xmlns="http://www.w3.org/2000/svg">
<path d="M242.988 39.9705C262.485 79.559 229.207 79.1834 256.988 113.47C295.734 161.29 346.715 90.427 397.988 124.47C459.478 165.297 458.016 270.523 397.988 313.47C337.206 356.958 314.378 265.595 256.988 313.47C210.973 351.856 249.633 365.977 200.988 400.97C151.24 436.758 76.5479 418.452 48.488 363.97C19.0133 306.742 66.185 287.863 48.488 225.97C32.7348 170.876 19.9293 179.364 3.48805 124.47C-24.969 29.4593 199.168 -49.0055 242.988 39.9705Z" stroke="#00509D" stroke-opacity="0.4" stroke-width="2"/>
<path d="M237.073 90.2586C250.333 117.98 227.7 117.717 246.595 141.725C272.947 175.21 307.621 125.59 342.494 149.428C384.315 178.016 383.321 251.698 342.494 281.77C301.154 312.221 285.628 248.247 246.595 281.77C215.298 308.649 241.592 318.537 208.507 343.04C174.672 368.099 123.871 355.281 104.786 317.132C84.7395 277.059 116.823 263.839 104.786 220.501C94.072 181.922 85.3625 187.865 74.1802 149.428C54.8256 82.8984 207.269 27.9553 237.073 90.2586Z" stroke="#00509D" stroke-opacity="0.4" stroke-width="2"/>
<path d="M239.24 72.729C255.012 104.991 228.092 104.685 250.565 132.627C281.908 171.597 323.148 113.848 364.625 141.591C414.365 174.863 413.183 260.615 364.625 295.615C315.456 331.054 296.99 256.6 250.565 295.615C213.342 326.897 244.615 338.404 205.265 366.922C165.022 396.086 104.601 381.168 81.9027 336.769C58.0596 290.131 96.2183 274.746 81.9027 224.308C69.1593 179.409 58.8006 186.326 45.5007 141.591C22.4809 64.1631 203.793 0.219036 239.24 72.729Z" stroke="#00509D" stroke-opacity="0.4" stroke-width="2"/>
</svg>
