<svg width="288" height="421" viewBox="0 0 288 421" fill="none" xmlns="http://www.w3.org/2000/svg">
<path d="M242.988 40.2523C262.485 79.8409 229.207 79.4653 256.988 113.752C295.734 161.572 346.715 90.7088 397.988 124.752C459.478 165.579 458.016 270.805 397.988 313.752C337.206 357.24 314.378 265.877 256.988 313.752C210.973 352.138 249.633 366.259 200.988 401.252C151.24 437.04 76.5479 418.734 48.488 364.252C19.0133 307.024 66.185 288.145 48.488 226.252C32.7348 171.158 19.9293 179.646 3.48805 124.752C-24.969 29.7412 199.168 -48.7236 242.988 40.2523Z" stroke="#00509D" stroke-width="2"/>
<path d="M237.073 90.5405C250.333 118.261 227.7 117.998 246.595 142.007C272.947 175.491 307.621 125.871 342.494 149.71C384.315 178.297 383.321 251.979 342.494 282.052C301.154 312.503 285.628 248.529 246.595 282.052C215.298 308.931 241.592 318.819 208.507 343.322C174.672 368.381 123.871 355.563 104.786 317.414C84.7395 277.341 116.823 264.121 104.786 220.783C94.072 182.204 85.3625 188.147 74.1802 149.71C54.8256 83.1803 207.269 28.2372 237.073 90.5405Z" stroke="#00509D" stroke-width="2"/>
<path d="M239.24 73.0109C255.012 105.273 228.092 104.967 250.565 132.909C281.908 171.879 323.148 114.13 364.625 141.873C414.365 175.144 413.183 260.897 364.625 295.897C315.456 331.336 296.99 256.881 250.565 295.897C213.342 327.179 244.615 338.686 205.265 367.204C165.022 396.368 104.601 381.45 81.9027 337.051C58.0596 290.413 96.2183 275.028 81.9027 224.589C69.1593 179.691 58.8006 186.608 45.5007 141.873C22.4809 64.4449 203.793 0.500896 239.24 73.0109Z" stroke="#00509D" stroke-width="2"/>
</svg>
