<svg xmlns="http://www.w3.org/2000/svg" enable-background="new 0 0 300 225" viewBox="0 0 300 225" id="BusinessLeadership"><g fill="#000000" class="color000000 svgShape"><g fill="#000000" class="color000000 svgShape"><path fill="none" stroke="#000000" stroke-miterlimit="10" stroke-width=".316" d="M216.99,194.96c26.82-6.22,46.22-29.69,47.03-57.21c0.03-0.91,0.04-1.83,0.04-2.77
			c0-15.31-10.66-23.76-12.19-30.94c-1.8-8.48,9.06-20.91,4.92-28.81c-9.99-19.06-30.82-15.83-44.49-23.01
			c-13.4-7.03-20.39-31.86-55.25-30.97c-36.18,0.92-36.35,28.05-51.54,36.57c-7.09,3.98-19.77,2.93-29.03,14
			c-9.63,11.52-4.06,20.82-7.77,29.06c-3.92,8.7-14.81,7.43-16.91,30.42c-0.04,0.39-0.07,0.77-0.1,1.16
			c-2.22,30.59,19.21,57.88,49.34,63.59C128.59,201.27,171.55,205.49,216.99,194.96z" class="colorStroke000000 svgStroke"></path></g><g fill="#000000" class="color000000 svgShape"><polygon fill="#ffffff" stroke="#000000" stroke-linecap="round" stroke-linejoin="round" stroke-miterlimit="10" stroke-width=".316" points="251.92 116.91 208.84 116.91 203.64 111.35 246.72 111.35" class="colorffffff svgShape colorStroke000000 svgStroke"></polygon><polygon points="203.64 111.35 208.84 116.91 208.84 203.77 203.64 198.21" fill="#000000" class="color000000 svgShape"></polygon><polygon fill="#ffffff" stroke="#000000" stroke-linecap="round" stroke-linejoin="round" stroke-miterlimit="10" stroke-width=".316" points="208.84 145.49 160.57 145.49 160.57 139.93 203.64 139.93" class="colorffffff svgShape colorStroke000000 svgStroke"></polygon><polygon points="160.57 139.93 165.77 145.49 165.77 203.77 160.57 198.21" fill="#000000" class="color000000 svgShape"></polygon><polygon fill="#ffffff" stroke="#000000" stroke-miterlimit="10" stroke-width=".316" points="165.77 159.16 117.49 159.16 117.49 153.6 160.57 153.6" class="colorffffff svgShape colorStroke000000 svgStroke"></polygon><polygon points="117.49 153.6 122.69 159.16 122.69 180.31 117.49 174.75" fill="#000000" class="color000000 svgShape"></polygon><polygon fill="#ffffff" stroke="#000000" stroke-linecap="round" stroke-linejoin="round" stroke-miterlimit="10" stroke-width=".316" points="122.69 180.31 74.41 180.31 74.41 174.75 117.49 174.75" class="colorffffff svgShape colorStroke000000 svgStroke"></polygon><polygon points="208.84 116.91 208.84 145.49 165.77 145.49 165.77 159.16 122.69 159.16 122.69 180.31 79.61 180.31 79.61 203.77 122.69 203.77 165.77 203.77 165.77 203.77 208.84 203.77 208.84 203.77 251.92 203.77 251.92 116.91" fill="#000000" class="color000000 svgShape"></polygon><polygon points="74.41 174.75 79.61 180.31 79.61 203.77 74.41 198.21" fill="#000000" class="color000000 svgShape"></polygon></g><path fill="#ffffff" stroke="#000000" stroke-linecap="round" stroke-linejoin="round" stroke-miterlimit="10" stroke-width=".316" d="M100.73,109.78l-9.57-5.55l4.22-7.19l10.68,5.96c2.74-0.92,5.99-0.02,5.99-0.02c2.16-1.64,6.14-2.13,6.14-2.13
		l6.06-7.53l4.74,6.24l-5.92,5.71c0.06,2.25-2.37,5.77-2.37,5.77c0.07,0.05,0.3,0.65-0.02,1.31c-0.32,0.66-1.05,0.76-1.05,0.76
		s0.11,0.56-0.32,1.12c-0.43,0.57-1.5,0.51-1.5,0.51c0.03,0.2-0.1,0.74-0.5,1.1c-0.4,0.36-1.16,0.42-1.16,0.42
		c0.03,0.21-0.04,0.71-0.68,1.11c-0.74,0.46-1.85-0.13-1.85-0.13l-8.11-3.42C102.23,111.69,100.73,109.78,100.73,109.78z" class="colorffffff svgShape colorStroke000000 svgStroke"></path><circle cx="74.35" cy="78.2" r="2.97" fill="#000000" class="color000000 svgShape"></circle><path d="M69.16,84.09c1.62-3.76,7.9-3.91,7.9-3.91L80.54,90l-7.65,2.02C72.89,92.02,67.54,87.84,69.16,84.09z" fill="#000000" class="color000000 svgShape"></path><g fill="#000000" class="color000000 svgShape"><path fill="#ffffff" stroke="#000000" stroke-linecap="round" stroke-linejoin="round" stroke-miterlimit="10" stroke-width=".316" d="M86.06,171.58l-1.87-28.02c-0.09-3.94,3.03-7.2,6.97-7.29c3.94-0.09,7.2,3.03,7.29,6.97l-1.46,27.95
			C96.98,171.19,92.13,172.97,86.06,171.58z" class="colorffffff svgShape colorStroke000000 svgStroke"></path></g><g fill="#000000" class="color000000 svgShape"><path fill="#ffffff" stroke="#000000" stroke-linecap="round" stroke-linejoin="round" stroke-miterlimit="10" stroke-width=".316" d="M43.99,148.54l20.2-5.71c4.18-0.51,7.99,2.46,8.51,6.65c0.51,4.18-2.46,7.99-6.65,8.51l-20.65,0.88
			C45.4,158.88,43.16,155.15,43.99,148.54z" class="colorffffff svgShape colorStroke000000 svgStroke"></path></g><g fill="#000000" class="color000000 svgShape"><path fill="#ffbf66" d="M75.5,131.85l-2.97,20.78c-1.23,4.03-5.49,6.31-9.52,5.08c-4.03-1.23-6.31-5.49-5.08-9.52l7.56-19.24
			C65.48,128.95,69.79,128.41,75.5,131.85z" class="colorfc8165 svgShape"></path></g><path fill="#ffbf66" d="M87.37,121.84l10.33,18.38l-11.74,10.2l-10.04-23.96C75.92,126.45,80.76,122.65,87.37,121.84z" class="colorfc8165 svgShape"></path><g fill="#000000" class="color000000 svgShape"><path fill="#ffc26e" d="M84.46,176.79l23.94-0.2l0,0c-0.01-1.31-0.73-2.51-1.87-3.15c-3.01-1.67-8.64-4.76-8.8-4.83
			c-0.21-0.1-0.49,0.07-0.69,0.29c0,0-0.83,0.94-1.62,1.3c0,0,0,0,0,0c-0.21,0.1-0.46,0.19-0.75,0.27
			c-1.04,0.31-2.56,0.53-4.63,0.53c-2.31,0-3.89-0.53-4.1-0.53c-0.21-0.01-0.58,0.38-0.64,0.68c-0.01,0.06-0.06,0.38-0.13,0.83
			C84.94,173.55,84.46,176.79,84.46,176.79z" class="colorff7f6e svgShape"></path><g fill="#000000" class="color000000 svgShape"><path d="M94.68,170.47l6.87,4.69c0.06,0.04,0.12,0.06,0.18,0.06c0.1,0,0.2-0.05,0.26-0.14c0.1-0.15,0.06-0.35-0.08-0.45
				l-6.49-4.43C95.21,170.29,94.96,170.38,94.68,170.47z" fill="#000000" class="color000000 svgShape"></path></g><polygon points="108.42 179.27 84.48 179.47 84.46 176.79 108.4 176.59" fill="#000000" class="color000000 svgShape"></polygon></g><g fill="#000000" class="color000000 svgShape"><path fill="#ffc26e" d="M38.7,148.64l6.22,21.84v0c1.2-0.34,2.12-1.3,2.41-2.51c0.77-3.17,2.17-9.1,2.2-9.26
			c0.04-0.22-0.19-0.43-0.44-0.56c0,0-1.06-0.52-1.6-1.16c0,0,0,0,0,0c-0.14-0.17-0.29-0.37-0.44-0.61
			c-0.55-0.87-1.13-2.21-1.65-4.1c-0.58-2.12-0.5-3.69-0.55-3.88c-0.05-0.19-0.5-0.44-0.78-0.41c-0.06,0.01-0.36,0.04-0.79,0.09
			C41.78,148.26,38.7,148.64,38.7,148.64z" class="colorff7f6e svgShape"></path><g fill="#000000" class="color000000 svgShape"><path d="M47.06,156.38l-2.56,7.47c-0.02,0.06-0.02,0.13-0.01,0.18c0.03,0.09,0.1,0.17,0.2,0.21c0.16,0.06,0.33-0.03,0.39-0.19
				l2.41-7.05C47.35,156.82,47.2,156.62,47.06,156.38z" fill="#000000" class="color000000 svgShape"></path></g><rect width="22.71" height="2.87" x="29.08" y="158.51" transform="rotate(-105.897 40.436 159.959)" fill="#000000" class="color000000 svgShape"></rect></g><path fill="#ffffff" stroke="#000000" stroke-miterlimit="10" stroke-width=".316" d="M98.26,139.84l-12.26-23.81l1.2-6.79l-19.06-3.76c0,0-3.22,7.39-3.83,12.49l-5.13,24.06
		c-0.15,0.71-0.7,1.28-1.4,1.45l-10.66,2.64c1.25,9.4,5.4,14.99,5.4,14.99l16.69-3.55c2.7-0.57,4.77-2.76,5.2-5.48l2.07-13.22
		l-0.01,0l0.74-4.5l5.76,10.15c0.16,0.29,0.25,0.61,0.25,0.94v22.08c9.42,1.04,15.8-1.51,15.8-1.51l0.66-19.94
		C99.74,143.92,99.26,141.77,98.26,139.84z" class="colorffffff svgShape colorStroke000000 svgStroke"></path><polygon fill="#ffffff" stroke="#000000" stroke-miterlimit="10" stroke-width=".316" points="75.23 87.39 80.83 89.35 81.18 86.79 81.39 85.28 81.58 83.92 76.38 82.59" class="colorffffff svgShape colorStroke000000 svgStroke"></polygon><path d="M81,88.15c0,0-1.8,1.33-5.52-1.77L74.01,86c-2.56-0.53-8.01,0.19-9.98,2.47l-0.19,28.52c0,0,16.66,5.25,23.69,1.33
		l0.39-26.5C87.92,91.81,86.71,88.41,81,88.15z" fill="#000000" class="color000000 svgShape"></path><path fill="#ffffff" stroke="#000000" stroke-linecap="round" stroke-linejoin="round" stroke-miterlimit="10" stroke-width=".316" d="M84.7,129.03c-0.36-0.32-4.1-4.3-4.55-5.59c0,0,2.8,1.23,3.97-0.91c0,0,0.63-1.42-0.42-1.53
		c-1.05-0.11-1.44-0.16-1.44-0.16s-1.91-0.31-3.09-1.37c-1.18-1.07-3.96-1.28-3.96-1.28s-0.03-0.02-0.1-0.06l0.01,0l-6.92-8.61
		l2.12-10.91l-8.02-1.56l-2.47,12.68c-0.05,0.28-0.08,0.56-0.08,0.83c-0.01,0.92,0.28,1.85,0.9,2.62l8.1,10.07l0,0
		c1.01,1.88,3.38,6.01,6.62,9.84c0,0,1.32,2.06,2.35,1.49c0.81-0.44,0.69-1.38,0.69-1.38s0.71,1.33,1.82,0.84
		c0,0,1.05-0.45,0.69-1.63c0,0,1.02,1.86,2.29,0.93c1.27-0.94,0.06-2.08,0.06-2.08s0.81,0.52,1.62-0.24
		C85.71,130.25,85.06,129.36,84.7,129.03z" class="colorffffff svgShape colorStroke000000 svgStroke"></path><g fill="#000000" class="color000000 svgShape"><path d="M69.79,109.35l3.24-16.29c0.56-2.84-1.28-5.61-4.13-6.17c-2.84-0.56-5.61,1.28-6.17,4.13l-3.24,16.29
			C65,109.64,69.79,109.35,69.79,109.35" fill="#000000" class="color000000 svgShape"></path></g><path fill="none" stroke="#000000" stroke-linecap="round" stroke-linejoin="round" stroke-miterlimit="10" stroke-width=".316" d="M81.39,85.28c0,0-2.93,0.51-4.29-1.69" class="colorStroke000000 svgStroke"></path><path fill="#ffffff" stroke="#000000" stroke-linecap="round" stroke-linejoin="round" stroke-miterlimit="10" stroke-width=".316" d="M153.31,150.17l-9.77-0.72l1.28-17.41c0.2-2.7,2.55-4.72,5.24-4.52h0c2.7,0.2,4.72,2.55,4.52,5.24
		L153.31,150.17z" class="colorffffff svgShape colorStroke000000 svgStroke"></path><g fill="#000000" class="color000000 svgShape"><path fill="#ffc26e" d="M153.49,148.83c-0.49-1.67-1.97-2.84-3.7-2.94l-2.38-0.13c-0.07-0.01-0.14-0.01-0.21-0.02
			c-1.58-0.09-3.08,0.71-3.95,2.04l-3.65,5.56h0c0.57,1.71,3.26,1.54,7.58,2.23c4.32,0.69,7.58-1.8,7.58-1.8
			C154.5,152.56,153.98,150.51,153.49,148.83z" class="colorff7f6e svgShape"></path><g fill="#000000" class="color000000 svgShape"><path d="M139.59,153.34c0,0,0.67,1.08,7.11,1.3c4.13,0.14,6.72-0.43,8.05-0.86l0.26,1.83c0.13,0.91-0.52,1.76-1.44,1.86
				c-2.61,0.3-7.9,0.68-13.15-0.19c-0.69-0.11-1.23-0.65-1.34-1.33C138.96,155.22,138.99,154.26,139.59,153.34z" fill="#000000" class="color000000 svgShape"></path></g><g fill="#000000" class="color000000 svgShape"><path d="M144.96,149.37c-0.13,0-0.26-0.08-0.31-0.2c-0.08-0.17,0-0.38,0.17-0.45c2.82-1.27,5.36-0.05,5.46,0.01
				c0.17,0.08,0.24,0.29,0.16,0.46c-0.08,0.17-0.29,0.24-0.46,0.16c-0.03-0.01-2.37-1.13-4.88,0.01
				C145.05,149.36,145.01,149.37,144.96,149.37z" fill="#000000" class="color000000 svgShape"></path></g><g fill="#000000" class="color000000 svgShape"><path d="M144.96,151.8c-0.13,0-0.26-0.08-0.31-0.2c-0.08-0.17,0-0.38,0.17-0.45c2.82-1.27,5.36-0.05,5.46,0.01
				c0.17,0.08,0.24,0.29,0.16,0.46c-0.08,0.17-0.29,0.24-0.46,0.16c-0.03-0.01-2.37-1.13-4.88,0.01
				C145.05,151.79,145.01,151.8,144.96,151.8z" fill="#000000" class="color000000 svgShape"></path></g></g><path fill="#ffffff" stroke="#000000" stroke-linecap="round" stroke-linejoin="round" stroke-miterlimit="10" stroke-width=".316" d="M169.1,129.18l0.46,9.86c5.51,1.06,9.83-0.7,9.83-0.7l0.44-9.77L169.1,129.18z" class="colorffffff svgShape colorStroke000000 svgStroke"></path><path fill="#ffffff" stroke="#000000" stroke-miterlimit="10" stroke-width=".316" d="M178.86,114.79c-0.3-1.75-1.11-3.37-2.34-4.65l-15.23-15.98l-19.66,1.4c0.35,5.12,0.96,16.72,0.87,18.77
		c-0.09,2.05-0.71,29-0.71,29s3.53,1.12,7.34,1.11c3.81-0.02,5.94-0.48,5.94-0.48s2.7-22.74,2.46-32.22c0-0.12-0.01-0.28-0.02-0.47
		l6.41,4.72l3.6,18.44c8.71,1.26,13.85-2.38,13.85-2.38L178.86,114.79z" class="colorffffff svgShape colorStroke000000 svgStroke"></path><g fill="#000000" class="color000000 svgShape"><path fill="#ffc26e" d="M168.04,142.09l21.57-0.18l0,0c-0.01-1.18-0.65-2.27-1.69-2.84c-2.71-1.5-7.78-4.29-7.93-4.35
			c-0.19-0.09-0.44,0.06-0.62,0.26c0,0-0.74,0.84-1.46,1.17c0,0,0,0,0,0c-0.19,0.09-0.42,0.17-0.67,0.25
			c-0.94,0.28-2.31,0.48-4.17,0.48c-2.09,0-3.51-0.47-3.7-0.48c-0.19-0.01-0.52,0.35-0.57,0.61c-0.01,0.06-0.05,0.34-0.12,0.75
			C168.48,139.17,168.04,142.09,168.04,142.09z" class="colorff7f6e svgShape"></path><polygon points="189.63 144.34 168.06 144.52 168.04 142.09 189.62 141.91" fill="#000000" class="color000000 svgShape"></polygon><g fill="#000000" class="color000000 svgShape"><path stroke="#000000" stroke-linecap="round" stroke-linejoin="round" stroke-miterlimit="10" stroke-width=".316" d="M181.54,138.1c-0.13,0-0.25-0.05-0.34-0.16c-0.17-0.19-0.15-0.48,0.04-0.64l1.87-1.64
				c0.19-0.17,0.48-0.15,0.64,0.04c0.17,0.19,0.15,0.48-0.04,0.64l-1.87,1.64C181.75,138.06,181.65,138.1,181.54,138.1z" class="colorStroke000000 svgStroke"></path></g><g fill="#000000" class="color000000 svgShape"><path stroke="#000000" stroke-linecap="round" stroke-linejoin="round" stroke-miterlimit="10" stroke-width=".316" d="M183.8,139.44c-0.13,0-0.25-0.05-0.34-0.16c-0.17-0.19-0.15-0.48,0.04-0.64l1.87-1.64
				c0.19-0.17,0.48-0.15,0.64,0.04c0.17,0.19,0.15,0.48-0.04,0.64l-1.87,1.64C184.01,139.41,183.91,139.44,183.8,139.44z" class="colorStroke000000 svgStroke"></path></g></g><path d="M152.66,60.94c0,0,1.05-1,3.16-0.72c3.56,0.47,4.49,11.05,4.49,11.05l-6.26,2.41L152.66,60.94z" fill="#000000" class="color000000 svgShape"></path><polygon fill="#ffffff" stroke="#000000" stroke-miterlimit="10" stroke-width=".316" points="153.87 68.18 149.24 69.34 150.21 74.05 154.9 72.49" class="colorffffff svgShape colorStroke000000 svgStroke"></polygon><path fill="#ffffff" stroke="#000000" stroke-miterlimit="10" stroke-width=".316" d="M154.58,66.36c-0.54,2.73-3.26,4.91-4.98,4.31c-2.48-0.87-2.33-2.81-2.28-5.59c0.08-3.85,2.43-4.66,4.23-4.31
		C153.35,61.12,155.12,63.62,154.58,66.36z" class="colorffffff svgShape colorStroke000000 svgStroke"></path><path d="M159.12,96.33c0,0-5.44,1.02-11.51,0.43l1.83-22.71l0.11-1.85c2.54,1.95,5.37-0.68,5.37-0.68l0.32,1.96L159.12,96.33z" fill="#000000" class="color000000 svgShape"></path><path fill="none" stroke="#000000" stroke-linecap="round" stroke-linejoin="round" stroke-miterlimit="10" stroke-width=".316" d="M149.51,70.63c0.82,0.29,2.1,0.23,3.86-1.72" class="colorStroke000000 svgStroke"></path><path d="M155.24,73.47c-0.72,0.71-1.93,1.17-3.3,1.17c-0.95,0-1.82-0.22-2.5-0.59l0.11-1.85c2.54,1.95,5.37-0.68,5.37-0.68
		L155.24,73.47z" fill="#000000" class="color000000 svgShape"></path><path fill="#ffc26e" d="M162.72 71.92c-2.36-1.69-8.39-1.81-8.39-1.81l2.44 31.88 10.72-.48c.41-.01.72-.38.66-.79C167.48 96.16 164.3 73.05 162.72 71.92zM149.63 71.13l.24 1.28 1.57 29.85-10.2.21c-.6.1-1.14-.38-1.12-.99.18-5.35 0-26.2 1.42-27.44C143.72 72.14 149.63 71.13 149.63 71.13" class="colorff7f6e svgShape"></path><path d="M146.92,65.44c-1.26-1.72-0.48-5.44,3.55-5.89c0,0,2.27-0.21,4.49,1.8l1.02,1.76l-2.92,3.23c-0.4-2.52-1.75-2.74-1.75-2.74
		S149.24,62.68,146.92,65.44z" fill="#000000" class="color000000 svgShape"></path><ellipse cx="154.4" cy="66.33" fill="#ffffff" rx="1.57" ry="1.97" class="colorffffff svgShape"></ellipse><path fill="#ffc26e" d="M124.58,105.62l18.59-20.29l2.06-13.03c0,0-6.99,1.89-9.93,4.38c-4.21,3.56-15.74,20.83-17.48,22.67
		C117.81,99.35,120.74,102.78,124.58,105.62z" class="colorff7f6e svgShape"></path><g fill="#000000" class="color000000 svgShape"><path d="M91.68,105.81l-10.87-7.13c-2.44-1.57-3.13-4.82-1.56-7.26c1.57-2.43,4.82-3.13,7.26-1.56l10.08,6.77
			C96.59,96.62,96.43,101.06,91.68,105.81z" fill="#000000" class="color000000 svgShape"></path></g><path fill="#ffffff" stroke="#000000" stroke-miterlimit="10" stroke-width=".316" d="M75.59,80.54c0.6,3.05,3.64,5.49,5.57,4.81c2.77-0.97,2.6-3.13,2.54-6.25c-0.08-4.3-2.72-5.21-4.73-4.81
		C76.96,74.69,74.98,77.49,75.59,80.54z" class="colorffffff svgShape colorStroke000000 svgStroke"></path><g fill="#000000" class="color000000 svgShape"><path d="M77.52,79.99l0.23,0.83l0-0.01c0.24-0.74,0.79-1.34,1.5-1.67c0.76-0.35,1.75-0.91,2.39-1.61
			c0.79-0.88,0.56-2.16,0.56-2.16l1.58,2.46c0,0,0.5-4.59-4.44-4.83c-4.36-0.2-4.45,3.34-4.45,3.34s-1.34,0.49-1.15,2.37
			c0.19,1.89,1.29,2.46,1.29,2.46S75.53,79.21,77.52,79.99z" fill="#000000" class="color000000 svgShape"></path></g><g fill="#000000" class="color000000 svgShape"><ellipse cx="75.85" cy="79.84" fill="#ffffff" rx="1.76" ry="2.2" class="colorffffff svgShape"></ellipse><path fill="none" stroke="#000000" stroke-linecap="round" stroke-linejoin="round" stroke-miterlimit="10" stroke-width=".316" d="M75.71,78.81c0,0,1,0.58,0.74,1.74c0,0-0.71-0.5-1.24,0.33" class="colorStroke000000 svgStroke"></path></g><line x1="87.75" x2="87.75" y1="103.15" y2="100.95" fill="none" stroke="#ffffff" stroke-linecap="round" stroke-linejoin="round" stroke-miterlimit="10" stroke-width=".316" class="colorStrokeffffff svgStroke"></line><line x1="70.78" x2="68.86" y1="99.56" y2="109.36" fill="none" stroke="#ffffff" stroke-linecap="round" stroke-linejoin="round" stroke-miterlimit="10" stroke-width=".316" class="colorStrokeffffff svgStroke"></line><path fill="#ffc26e" d="M153.66,60.4c0.24,0.13,0.44,0.33,0.59,0.56c0.15,0.23,0.25,0.5,0.28,0.79c0.02,0.28-0.01,0.57-0.12,0.83
		c-0.04,0.13-0.13,0.25-0.2,0.36c-0.08,0.11-0.18,0.21-0.27,0.3c0.04-0.13,0.09-0.25,0.13-0.37c0.03-0.13,0.08-0.24,0.1-0.37
		c0.06-0.24,0.07-0.48,0.05-0.72C154.18,61.29,153.96,60.84,153.66,60.4z" class="colorff7f6e svgShape"></path><path fill="none" stroke="#000000" stroke-linecap="round" stroke-linejoin="round" stroke-miterlimit="10" stroke-width=".316" d="M112.05 102.98c0 0 5.13 2.78 3.93 4.74-.82 1.33-3.37 0-3.37 0s.38 3.34-2.72 4.1M113.39 108.05c0 0 .32 1.97 2.4 1.78M120.71 111.06l-3.38-1.72c0 0-.85-.47-1.37.3-.52.77.47 1.42.47 1.42l3.2 2.07" class="colorStroke000000 svgStroke"></path><path fill="none" stroke="#000000" stroke-linecap="round" stroke-linejoin="round" stroke-miterlimit="10" stroke-width=".316" d="M119.64 113.13l-3.68-2.37c0 0-.79-.56-1.39.15-.61.71.31 1.46.31 1.46l2.94 2.39M117.81 114.76l-2.48-1.97c0 0-.71-.65-1.4-.02s.13 1.49.13 1.49l2.1 2.02" class="colorStroke000000 svgStroke"></path><path fill="none" stroke="#000000" stroke-linecap="round" stroke-linejoin="round" stroke-miterlimit="10" stroke-width=".316" d="M116.16,116.28l-1.77-1.69c0,0-0.64-0.73-1.39-0.17c-0.75,0.55-0.03,1.5-0.03,1.5l1.12,1.38" class="colorStroke000000 svgStroke"></path><line x1="83.28" x2="79.24" y1="131.24" y2="126.99" fill="#fff" stroke="#000000" stroke-linecap="round" stroke-linejoin="round" stroke-miterlimit="10" stroke-width=".316" class="colorStroke000000 svgStroke"></line><line x1="80.92" x2="77.8" y1="132.39" y2="128.78" fill="#fff" stroke="#000000" stroke-linecap="round" stroke-linejoin="round" stroke-miterlimit="10" stroke-width=".316" class="colorStroke000000 svgStroke"></line><line x1="78.42" x2="76.06" y1="133.19" y2="130.14" fill="#fff" stroke="#000000" stroke-linecap="round" stroke-linejoin="round" stroke-miterlimit="10" stroke-width=".316" class="colorStroke000000 svgStroke"></line><path fill="none" stroke="#000000" stroke-linecap="round" stroke-linejoin="round" stroke-miterlimit="10" stroke-width=".316" d="M154.52,65.42c0,0-0.87,0.5-0.65,1.52c0,0,0.62-0.44,1.08,0.29" class="colorStroke000000 svgStroke"></path><g fill="#000000" class="color000000 svgShape"><path d="M229.62,102.12L229.62,102.12c-9.27,0-16.79-7.52-16.79-16.79V63.41h33.58v21.91C246.41,94.6,238.89,102.12,229.62,102.12
			" fill="#000000" class="color000000 svgShape"></path><g fill="#000000" class="color000000 svgShape"><path d="M240.72,90.18h-2.05V63.41h15.36c2.06,0,3.98,0.92,5.28,2.52c1.29,1.6,1.79,3.67,1.36,5.67
				C258.35,82.54,250.14,90.18,240.72,90.18z M242.77,67.51v18.4c6.59-1.03,12.15-6.98,13.89-15.16v0c0.17-0.79-0.03-1.61-0.54-2.24
				c-0.51-0.63-1.28-1-2.09-1H242.77z" fill="#000000" class="color000000 svgShape"></path></g><g fill="#000000" class="color000000 svgShape"><path d="M220.58,90.18h-2.05c-9.43,0-17.63-7.64-19.95-18.58l0,0c-0.43-2.01,0.07-4.08,1.36-5.67c1.3-1.6,3.22-2.52,5.28-2.52
				h15.36V90.18z M205.21,67.51c-0.82,0-1.58,0.36-2.09,1c-0.51,0.63-0.71,1.45-0.54,2.24v0c1.74,8.19,7.29,14.13,13.89,15.16v-18.4
				H205.21z" fill="#000000" class="color000000 svgShape"></path></g><g fill="#000000" class="color000000 svgShape"><rect width="6" height="14.39" x="226.62" y="97.54" fill="#000000" class="color000000 svgShape"></rect></g><g fill="#000000" class="color000000 svgShape"><path d="M236.91,114.37h-14.58c-1.13,0-2.05-0.92-2.05-2.05s0.92-2.05,2.05-2.05h14.58c1.13,0,2.05,0.92,2.05,2.05
				S238.04,114.37,236.91,114.37z" fill="#000000" class="color000000 svgShape"></path></g></g><g fill="#000000" class="color000000 svgShape"><path fill="#ffffff" stroke="#000000" stroke-linecap="round" stroke-linejoin="round" stroke-miterlimit="10" stroke-width=".316" d="M194.9,71.36l5.92-4.09c0.62-0.43,1.46-0.34,1.97,0.21v0c0.61,0.65,0.53,1.7-0.18,2.24l-4.07,3.14
			c0,0,1.29-0.23,1.54,1.36c0,0,0.29,0.86-0.74,1.6c0,0,1.27,0.12,1.34,1.34s-0.75,1.64-0.75,1.64s1.35,0.58,0.37,1.99
			c0,0-0.44,0.76-2.41,1.09c0,0-4.04,1.49-5.36,2.22c-1.33,0.72-5.17,0.85-5.17,0.85l0,0c-1.1,0.39-2.32,0.06-3.06-0.84l-1.53-1.84
			c-0.98-1.18-0.82-2.92,0.35-3.91l1.63-1.37c0,0,4.17-2.86,5.52-5.01c0.89-1.4,1.81-1.55,2.48-1.74c0.49-0.14,1.03-0.01,1.39,0.35
			L194.9,71.36z" class="colorffffff svgShape colorStroke000000 svgStroke"></path><path fill="none" stroke="#000000" stroke-linecap="round" stroke-linejoin="round" stroke-miterlimit="10" stroke-width=".316" d="M194.9,71.36l2.45,2.92c0.22,0.27,0.15,0.67-0.16,0.84c-0.94,0.51-2.93,1.2-4.75-0.77" class="colorStroke000000 svgStroke"></path><line x1="198.53" x2="197.01" y1="72.86" y2="73.88" fill="none" stroke="#000000" stroke-linecap="round" stroke-linejoin="round" stroke-miterlimit="10" stroke-width=".316" class="colorStroke000000 svgStroke"></line><path fill="none" stroke="#000000" stroke-linecap="round" stroke-linejoin="round" stroke-miterlimit="10" stroke-width=".316" d="M193.43 75.17c0 0 .28 2.31-1.57 3.65M199.33 75.82l-3.18 1.28c-.81.27-1.68-.22-1.86-1.06l-.05-.51" class="colorStroke000000 svgStroke"></path><path fill="none" stroke="#000000" stroke-miterlimit="10" stroke-width=".316" d="M199.91,78.81l-2.28,0.87c-0.77,0.3-1.64-0.09-1.93-0.87l0,0c-0.29-0.77,0.1-1.62,0.86-1.91l2.57-0.99" class="colorStroke000000 svgStroke"></path><path fill="none" stroke="#000000" stroke-linecap="round" stroke-linejoin="round" stroke-miterlimit="10" stroke-width=".316" d="M199.32,79.04l-1.95,0.72c-0.55,0.21-0.85,0.8-0.69,1.37l0,0c0.17,0.6,0.81,0.95,1.41,0.77l0.55-0.17" class="colorStroke000000 svgStroke"></path></g><path fill="#ffc26e" d="M184.08,76.79l-10.44,4.39c-0.34,0.14-0.74,0.08-1.02-0.17c-1.87-1.67-7.22-6.93-9.91-9.09
		c-2.97-2.39-8.39-1.81-8.39-1.81l7.23,19.1c0,0,3.73,5.68,10.55,6.31c6.82,0.64,15.67-9.13,15.74-9.88L184.08,76.79z" class="colorff7f6e svgShape"></path></g></svg>