<svg xmlns="http://www.w3.org/2000/svg" enable-background="new 0 0 300 225" viewBox="0 0 300 225" id="BusinessGoal">
  <g fill="#000000" class="color000000 svgShape">
    <g fill="#000000" class="color000000 svgShape">
      <rect width="95.37" height="2.53" x="102.31" y="22.5" fill="#000000" class="color000000 svgShape"></rect>
    </g>
    <g fill="#000000" class="color000000 svgShape">
      <path fill="none" stroke="#000000" stroke-miterlimit="10" stroke-width=".316" d="M177.61,188.57c45.19-8.31,80.16-37.66,87.93-74.76c13.81-65.91-77.85-58.27-96.18-75.47
			c-26.7-25.04-51.63-27.08-72.97-16.43c-26.69,13.32-5,31.6-40.29,53.89c-22.97,14.51-26.16,34.63-20.78,53.34
			c7.65,26.57,31.99,47.8,63.77,56.64C118.96,191.3,145.53,194.47,177.61,188.57z" class="colorStroke000000 svgStroke"></path>
    </g>
    <g fill="#000000" class="color000000 svgShape">
      <path d="M83.68,171.46v13.38c0,13.44,31.7,24.34,70.79,24.34s70.79-10.9,70.79-24.34v-13.38H83.68z" fill="#000000" class="color000000 svgShape"></path>
      <ellipse cx="154.47" cy="171.46" rx="70.79" ry="24.34" fill="#000000" class="color000000 svgShape"></ellipse>
      <path fill="#ffffff" d="M154.47,151.34c-33.34,0-60.37,9.04-60.37,20.2c0,11.15,27.03,20.2,60.37,20.2c33.34,0,60.37-9.04,60.37-20.2
			C214.84,160.38,187.81,151.34,154.47,151.34z M154.47,155.17c26.85,0,48.61,7.33,48.61,16.37c0,9.04-21.76,16.36-48.61,16.36
			c-26.85,0-48.61-7.33-48.61-16.36C105.87,162.5,127.63,155.17,154.47,155.17z" class="colorffffff svgShape"></path>
      <path fill="#ffffff" d="M154.47,161.31c-18.13,0-32.82,4.58-32.82,10.23c0,5.65,14.7,10.23,32.82,10.23
			c18.13,0,32.82-4.58,32.82-10.23C187.3,165.89,172.6,161.31,154.47,161.31z M154.47,164.36c12.64,0,22.88,3.21,22.88,7.17
			c0,3.96-10.24,7.17-22.88,7.17s-22.88-3.21-22.88-7.17C131.59,167.57,141.83,164.36,154.47,164.36z" class="colorffffff svgShape"></path>
    </g>
    <line x1="237.73" x2="237.73" y1="112.75" y2="112.66" fill="none" stroke="#b2a667" stroke-miterlimit="10" stroke-width=".316" class="colorStroke679bb2 svgStroke"></line>
    <g fill="#000000" class="color000000 svgShape">
      <path d="M158.78,45.9c-1.32-1.74-1.42-5.26-1.42-5.26c0-4.24-3.44-7.68-7.68-7.68S142,36.4,142,40.64c0,0-0.1,3.53-1.42,5.26
			c-1.32,1.74-4.3,10.55,9.1,10.62C163.08,56.45,160.1,47.63,158.78,45.9z" fill="#000000" class="color000000 svgShape"></path>
      <path d="M156.91,40.06c0,3.84-3.27,7.18-7.3,7.18c-4.03,0-7.3-3.35-7.3-7.18s3.27-6.95,7.3-6.95
			C153.64,33.11,156.91,36.22,156.91,40.06z" fill="#000000" class="color000000 svgShape"></path>
      <ellipse cx="142.72" cy="44.02" fill="#ffffff" stroke="#000000" stroke-linecap="round" stroke-linejoin="round" stroke-miterlimit="10" stroke-width=".316" rx="1.69" ry="2.12" transform="rotate(-15.088 142.727 44.02)" class="colorffffff svgShape colorStroke000000 svgStroke"></ellipse>
      <ellipse cx="156.24" cy="44.02" fill="#ffffff" stroke="#000000" stroke-linecap="round" stroke-linejoin="round" stroke-miterlimit="10" stroke-width=".316" rx="2.12" ry="1.69" transform="rotate(-74.912 156.245 44.019)" class="colorffffff svgShape colorStroke000000 svgStroke"></ellipse>
      <path fill="none" stroke="#000000" stroke-linecap="round" stroke-linejoin="round" stroke-miterlimit="10" stroke-width=".316" d="M157.05,43.24c0,0-0.96,0.07-1.3,1.15c0,0,0.93-0.12,0.93,0.74" class="colorStroke000000 svgStroke"></path>
      <polygon fill="#ffffff" stroke="#000000" stroke-linecap="round" stroke-linejoin="round" stroke-miterlimit="10" stroke-width=".316" points="153.14 48.03 146.45 48.66 145.76 59.34 154.97 59.01" class="colorffffff svgShape colorStroke000000 svgStroke"></polygon>
      <g fill="#000000" class="color000000 svgShape">
        <path fill="#ffffff" stroke="#000000" stroke-linecap="round" stroke-linejoin="round" stroke-miterlimit="10" stroke-width=".316" d="M173.64,24.19l-0.48-2.34c-0.28-0.81,0.07-1.71,0.83-2.11v0c0.91-0.48,2.03-0.07,2.41,0.88l-0.01,0.02
				c0,0,0.14-1.49,1.96-1.29c0,0,1.04-0.06,1.54,1.31c0,0,0.52-1.37,1.88-1.06c1.36,0.3,1.58,1.33,1.58,1.33s1.05-1.31,2.31,0.19
				c0,0,0.7,0.71,0.47,2.98c0,0,0.42,4.9,0.81,6.58c0.39,1.68-0.63,5.95-0.63,5.95v0c0.1,1.32-0.64,2.57-1.85,3.12l-2.49,1.13
				c-1.59,0.72-3.47,0.02-4.19-1.57l-1.01-2.21c0,0-1.94-5.4-3.84-7.6c-1.05-1.22-1.29-2.38-1.3-3.18c0-0.59,0.3-1.13,0.81-1.43
				L173.64,24.19z" class="colorffffff svgShape colorStroke000000 svgStroke"></path>
        <g fill="#000000" class="color000000 svgShape">
          <path d="M182.98,24.43c-0.25,0.69-0.93,1.17-1.69,1.13c-0.92-0.05-1.62-0.81-1.6-1.73l0.07-3.16c0-0.07,0.06-0.13,0.14-0.13
					c0.07,0,0.13,0.06,0.13,0.14l-0.07,3.16c-0.02,0.78,0.58,1.42,1.35,1.46c0.74,0.04,1.39-0.5,1.49-1.23l0.43-3.15
					c0.01-0.07,0.08-0.12,0.15-0.11c0.07,0.01,0.12,0.08,0.11,0.15l-0.43,3.15C183.05,24.22,183.02,24.33,182.98,24.43z" fill="#000000" class="color000000 svgShape"></path>
        </g>
        <g fill="#000000" class="color000000 svgShape">
          <path d="M179.81,24.42c-0.02,0.05-0.04,0.1-0.06,0.14c-0.29,0.63-0.93,1.02-1.63,0.98c-0.1-0.01-0.2-0.02-0.29-0.04
					c-0.07-0.02-0.12-0.09-0.1-0.16c0.02-0.07,0.09-0.12,0.16-0.1c0.07,0.02,0.15,0.03,0.24,0.03c0.59,0.03,1.12-0.29,1.37-0.83
					c0.06-0.13,0.1-0.26,0.12-0.41l0.13-3.38c0-0.07,0.07-0.13,0.14-0.13c0.07,0,0.13,0.06,0.13,0.14l-0.13,3.39
					C179.88,24.19,179.85,24.31,179.81,24.42z" fill="#000000" class="color000000 svgShape"></path>
        </g>
        <g fill="#000000" class="color000000 svgShape">
          <path d="M186.1,24.84c-0.27,0.76-1.06,1.24-1.87,1.11c-0.91-0.15-1.53-0.98-1.41-1.89l0.41-3.13c0.01-0.07,0.08-0.12,0.15-0.12
					c0.07,0.01,0.12,0.08,0.12,0.15l-0.41,3.13c-0.1,0.77,0.42,1.47,1.19,1.59c0.73,0.12,1.44-0.35,1.61-1.07
					c0.02-0.07,0.09-0.12,0.16-0.1c0.07,0.02,0.12,0.09,0.1,0.16C186.13,24.73,186.12,24.78,186.1,24.84z" fill="#000000" class="color000000 svgShape"></path>
        </g>
        <g fill="#000000" class="color000000 svgShape">
          <path d="M177.59,26.07c-0.23,0.64-0.63,1.31-1.3,1.94c-0.05,0.05-0.14,0.05-0.19-0.01c-0.05-0.05-0.05-0.14,0.01-0.19
					c2.13-1.98,1.37-4.44,1.28-4.71c-0.06-0.19-0.26-0.29-0.45-0.24l-3.25,1.45c-0.07,0.03-0.15,0-0.18-0.07
					c-0.03-0.07,0-0.15,0.07-0.18l3.27-1.46c0.34-0.1,0.68,0.08,0.79,0.41C177.71,23.22,178.12,24.56,177.59,26.07z" fill="#000000" class="color000000 svgShape"></path>
        </g>
        <g fill="#000000" class="color000000 svgShape">
          <path d="M181.41,29.38c-0.01,0.03-0.04,0.06-0.07,0.08c-0.07,0.03-0.15,0-0.18-0.06c-1.22-2.55-4.11-2.33-4.13-2.32
					c-0.07,0.01-0.14-0.05-0.14-0.12c-0.01-0.07,0.05-0.14,0.12-0.14c0.03,0,3.1-0.24,4.4,2.47
					C181.42,29.32,181.42,29.35,181.41,29.38z" fill="#000000" class="color000000 svgShape"></path>
        </g>
        <line x1="176.4" x2="176.44" y1="20.65" y2="22.94" fill="none" stroke="#000000" stroke-linecap="round" stroke-linejoin="round" stroke-miterlimit="10" stroke-width=".316" class="colorStroke000000 svgStroke"></line>
      </g>
      <path fill="#ffffff" stroke="#000000" stroke-linecap="round" stroke-linejoin="round" stroke-miterlimit="10" stroke-width=".316" d="M143.43,39.6c0,0-0.33,10.79,5.98,10.79c6.85,0,6.42-10.79,6.42-10.79s-0.04-4.95-6.25-4.95
			C143.88,34.65,143.43,39.6,143.43,39.6z" class="colorffffff svgShape colorStroke000000 svgStroke"></path>
      <path d="M155.03,37.09c0,0-3.01-1.3-4.92,0.7c-1.84,1.91-3.88,3.39-6.67,2.27c0,0-0.76-4.17,4.39-5.5
			C152.98,33.21,155.03,37.09,155.03,37.09z" fill="#000000" class="color000000 svgShape"></path>
      <path fill="#ffffff" stroke="#000000" stroke-linecap="round" stroke-linejoin="round" stroke-miterlimit="10" stroke-width=".316" d="M170.29,137.69c-0.02-0.29-0.06-0.57-0.11-0.84c0.01-0.28,0.01-0.56-0.01-0.85l-1.67-23.28l-28.66,0.75
			l-1.66,22.53c-0.02,0.28-0.02,0.55-0.01,0.82c-0.05,0.27-0.09,0.54-0.11,0.82l-1.87,25.47l14.29,1.05l1.87-25.47
			c0.02-0.28,0.02-0.55,0.01-0.82c0.05-0.27,0.09-0.54,0.11-0.82l1.49-20.24l1.46,20.25c0.02,0.29,0.06,0.57,0.11,0.84
			c-0.01,0.28-0.01,0.56,0.01,0.85l1.89,26.31l14.76-1.06L170.29,137.69z" class="colorffffff svgShape colorStroke000000 svgStroke"></path>
      <path fill="#ffffff" stroke="#000000" stroke-linecap="round" stroke-linejoin="round" stroke-miterlimit="10" stroke-width=".316" d="M174.52,124.08c-4.01-33.59-9.31-39.19-9.31-39.19l-25.74,0.32c0,0-6.01,6.98-6.14,39.51
			c0,0.56,0.44,1.02,1,1.04l39.15-0.52C174.11,125.24,174.6,124.7,174.52,124.08z" class="colorffffff svgShape colorStroke000000 svgStroke"></path>
      <path d="M160.61,90.65c0,0-11.5,1.5-20.38,0.63l5.19-37.04c3.71,2.85,9.05,0.1,9.05,0.1L160.61,90.65z" fill="#000000" class="color000000 svgShape"></path>
      <g fill="#000000" class="color000000 svgShape">
        <path fill="#ffd500" d="M177.68,168.91L177.68,168.91L177.68,168.91l-5.34-8.14c-1.27-1.94-3.47-3.11-5.78-2.98
				c-0.1,0.01-0.21,0.01-0.31,0.02l-3.48,0.2c-2.53,0.14-4.71,1.86-5.42,4.3c-0.72,2.46-1.48,5.45-1.85,7.24
				c0,0,4.76,3.64,11.09,2.63C172.92,171.17,176.84,171.41,177.68,168.91L177.68,168.91L177.68,168.91z" class="colorff7f6e svgShape"></path>
        <g fill="#000000" class="color000000 svgShape">
          <path d="M177.68,168.91c0,0-0.99,1.57-10.41,1.9c-6.04,0.21-9.83-0.63-11.77-1.27l-0.38,2.67c-0.19,1.34,0.76,2.57,2.1,2.72
					c3.82,0.43,11.56,1,19.25-0.28c1.01-0.17,1.8-0.96,1.96-1.97C178.6,171.64,178.56,170.25,177.68,168.91z" fill="#000000" class="color000000 svgShape"></path>
        </g>
        <path fill="none" stroke="#000000" stroke-linecap="round" stroke-linejoin="round" stroke-miterlimit="10" stroke-width=".316" d="M162.27 162.6c0 0 3.61-1.78 7.56 0M162.27 166.15c0 0 3.61-1.78 7.56 0" class="colorStroke000000 svgStroke"></path>
      </g>
      <g fill="#000000" class="color000000 svgShape">
        <path fill="#ffd500" d="M150.52,162.31c-0.71-2.44-2.88-4.16-5.42-4.3l-3.48-0.2c-0.11-0.01-0.21-0.02-0.31-0.02
				c-2.31-0.13-4.51,1.04-5.78,2.98l-5.34,8.14l0,0c0.84,2.5,4.76,2.26,11.09,3.27c6.33,1.01,11.09-2.63,11.09-2.63
				C152,167.76,151.24,164.77,150.52,162.31z" class="colorff7f6e svgShape"></path>
        <g fill="#000000" class="color000000 svgShape">
          <path d="M130.19,168.91c0,0,0.99,1.57,10.41,1.9c6.04,0.21,9.83-0.63,11.77-1.27l0.38,2.67c0.19,1.34-0.76,2.57-2.1,2.72
					c-3.82,0.43-11.56,1-19.25-0.28c-1-0.17-1.8-0.95-1.96-1.95C129.27,171.66,129.31,170.26,130.19,168.91z" fill="#000000" class="color000000 svgShape"></path>
        </g>
        <path fill="none" stroke="#000000" stroke-linecap="round" stroke-linejoin="round" stroke-miterlimit="10" stroke-width=".316" d="M145.6 162.6c0 0-3.61-1.78-7.56 0M145.6 166.15c0 0-3.61-1.78-7.56 0" class="colorStroke000000 svgStroke"></path>
      </g>
      <path d="M154.17,56.58l-0.21-2.89c0,0-3.72,3.49-7.92,0.28l-0.4,2.68C145.65,56.65,149.85,59.14,154.17,56.58z" fill="#000000" class="color000000 svgShape"></path>
      <path fill="#ffd500" d="M165.87,54.34c-3.89-1.6-12.28-2.06-12.28-2.06l3.57,46.64l15.68-0.7c0.6-0.02,1.05-0.56,0.96-1.16
			C172.83,90.4,168.49,55.42,165.87,54.34z" class="colorff7f6e svgShape"></path>
      <path fill="#ffd500" d="M188.79,44.53l-26.52,9.2l0.87,12.15c3.21,4.18,13.76-0.38,22.56-5.23c3.28-1.8,5.04-5.5,4.36-9.18
			L188.79,44.53z" class="colorff7f6e svgShape"></path>
      <path fill="#ffd500" d="M189.84,51.32l-2.43-15.05l-11.13,2.21l3.85,14.76c0.36,1.8,1.64,3.17,3.26,3.73
			c0.8,0.27,1.67,0.34,2.56,0.17C188.63,56.61,190.37,54,189.84,51.32z" class="colorff7f6e svgShape"></path>
      <g fill="#000000" class="color000000 svgShape">
        <path fill="#ffffff" stroke="#000000" stroke-linecap="round" stroke-linejoin="round" stroke-miterlimit="10" stroke-width=".316" d="M126.36,24.21l0.48-2.34c0.28-0.81-0.07-1.71-0.83-2.11v0c-0.91-0.48-2.03-0.07-2.41,0.88l0.01,0.02
				c0,0-0.14-1.49-1.96-1.29c0,0-1.04-0.06-1.54,1.31c0,0-0.52-1.37-1.88-1.06c-1.36,0.3-1.58,1.33-1.58,1.33s-1.05-1.31-2.31,0.19
				c0,0-0.7,0.71-0.47,2.98c0,0-0.42,4.9-0.81,6.58c-0.39,1.68,0.63,5.95,0.63,5.95v0c-0.1,1.32,0.64,2.57,1.85,3.12l2.49,1.13
				c1.59,0.72,3.47,0.02,4.19-1.57l1.01-2.21c0,0,1.94-5.4,3.84-7.6c1.05-1.22,1.29-2.38,1.3-3.18c0-0.59-0.3-1.13-0.81-1.43
				L126.36,24.21z" class="colorffffff svgShape colorStroke000000 svgStroke"></path>
        <g fill="#000000" class="color000000 svgShape">
          <path d="M117.02,24.45c0.25,0.69,0.93,1.17,1.69,1.13c0.92-0.05,1.63-0.81,1.6-1.73l-0.07-3.16c0-0.07-0.06-0.13-0.14-0.13
					c-0.07,0-0.13,0.06-0.13,0.14l0.07,3.16c0.02,0.78-0.58,1.42-1.35,1.46c-0.74,0.04-1.39-0.5-1.49-1.23l-0.43-3.15
					c-0.01-0.07-0.08-0.12-0.15-0.11c-0.07,0.01-0.12,0.08-0.11,0.15l0.43,3.15C116.95,24.24,116.98,24.35,117.02,24.45z" fill="#000000" class="color000000 svgShape"></path>
        </g>
        <g fill="#000000" class="color000000 svgShape">
          <path d="M120.19,24.44c0.02,0.05,0.04,0.1,0.06,0.14c0.29,0.63,0.93,1.02,1.63,0.98c0.1-0.01,0.2-0.02,0.29-0.04
					c0.07-0.02,0.12-0.09,0.1-0.16c-0.02-0.07-0.09-0.12-0.16-0.1c-0.07,0.02-0.15,0.03-0.24,0.03c-0.59,0.03-1.12-0.29-1.37-0.83
					c-0.06-0.13-0.1-0.26-0.12-0.41l-0.13-3.38c0-0.07-0.07-0.13-0.14-0.13c-0.07,0-0.13,0.06-0.13,0.14l0.13,3.39
					C120.12,24.21,120.15,24.33,120.19,24.44z" fill="#000000" class="color000000 svgShape"></path>
        </g>
        <g fill="#000000" class="color000000 svgShape">
          <path d="M113.9,24.86c0.27,0.76,1.06,1.24,1.87,1.11c0.91-0.15,1.53-0.98,1.41-1.89l-0.41-3.13c-0.01-0.07-0.08-0.12-0.15-0.12
					c-0.07,0.01-0.12,0.08-0.12,0.15l0.41,3.13c0.1,0.77-0.42,1.47-1.19,1.59c-0.73,0.12-1.44-0.35-1.61-1.07
					c-0.02-0.07-0.09-0.12-0.16-0.1c-0.07,0.02-0.12,0.09-0.1,0.16C113.87,24.75,113.88,24.81,113.9,24.86z" fill="#000000" class="color000000 svgShape"></path>
        </g>
        <g fill="#000000" class="color000000 svgShape">
          <path d="M122.41,26.09c0.23,0.64,0.63,1.31,1.3,1.94c0.05,0.05,0.14,0.05,0.19-0.01c0.05-0.05,0.05-0.14-0.01-0.19
					c-2.13-1.98-1.37-4.44-1.28-4.71c0.06-0.19,0.26-0.29,0.45-0.24l3.25,1.45c0.07,0.03,0.15,0,0.18-0.07
					c0.03-0.07,0-0.15-0.07-0.18l-3.27-1.46c-0.34-0.1-0.68,0.08-0.79,0.41C122.29,23.24,121.88,24.58,122.41,26.09z" fill="#000000" class="color000000 svgShape"></path>
        </g>
        <g fill="#000000" class="color000000 svgShape">
          <path d="M118.59,29.41c0.01,0.03,0.04,0.06,0.07,0.08c0.07,0.03,0.15,0,0.18-0.06c1.22-2.55,4.11-2.33,4.13-2.32
					c0.07,0.01,0.14-0.05,0.14-0.12c0.01-0.07-0.05-0.14-0.12-0.14c-0.03,0-3.1-0.24-4.4,2.47
					C118.58,29.34,118.58,29.37,118.59,29.41z" fill="#000000" class="color000000 svgShape"></path>
        </g>
        <line x1="123.6" x2="123.56" y1="20.67" y2="22.96" fill="none" stroke="#000000" stroke-linecap="round" stroke-linejoin="round" stroke-miterlimit="10" stroke-width=".316" class="colorStroke000000 svgStroke"></line>
      </g>
      <path fill="#ffd500" d="M134.13,54.36c3.89-1.6,12.28-2.06,12.28-2.06l-1.9,46.62l-15.5-0.65c-0.6-0.02-1.05-0.56-0.96-1.16
			C129.02,90.45,131.51,55.44,134.13,54.36z" class="colorff7f6e svgShape"></path>
      <path fill="#ffd500" d="M111.21,44.55l26.52,9.2l-0.87,12.15c-3.21,4.18-13.76-0.38-22.56-5.23c-3.28-1.8-5.04-5.5-4.36-9.18
			L111.21,44.55z" class="colorff7f6e svgShape"></path>
      <path fill="#ffd500" d="M110.16,51.34l2.43-15.05l11.13,2.21l-3.85,14.76c-0.36,1.8-1.64,3.17-3.26,3.73
			c-0.8,0.27-1.67,0.34-2.56,0.17C111.37,56.63,109.63,54.02,110.16,51.34z" class="colorff7f6e svgShape"></path>
      <g fill="#000000" class="color000000 svgShape">
        <circle cx="146.24" cy="43.1" r="2.41" fill="none" stroke="#000000" stroke-linecap="round" stroke-linejoin="round" stroke-miterlimit="10" stroke-width=".316" class="colorStroke000000 svgStroke"></circle>
        <circle cx="152.78" cy="43.1" r="2.41" fill="none" stroke="#000000" stroke-linecap="round" stroke-linejoin="round" stroke-miterlimit="10" stroke-width=".316" class="colorStroke000000 svgStroke"></circle>
        <path fill="none" stroke="#000000" stroke-linecap="round" stroke-linejoin="round" stroke-miterlimit="10" stroke-width=".316" d="M148.65,43.1c0,0,0.86-0.47,1.72,0" class="colorStroke000000 svgStroke"></path>
      </g>
      <path fill="none" stroke="#000000" stroke-linecap="round" stroke-linejoin="round" stroke-miterlimit="10" stroke-width=".316" d="M142.12,43.24c0,0,0.96,0.07,1.3,1.15c0,0-0.93-0.12-0.93,0.74" class="colorStroke000000 svgStroke"></path>
    </g>
    <polygon points="92.32 23.76 104.06 31.35 104.06 16.17" fill="#000000" class="color000000 svgShape"></polygon>
  </g>
</svg>