<svg xmlns="http://www.w3.org/2000/svg" viewBox="0 0 489.17 158.09">
  <defs>
    <style>.cls-1{fill:#06539e;}.cls-2{fill:#fcd603;}</style>
  </defs>
  <g id="Layer_2" data-name="Layer 2">
    <g id="Layer_1-2" data-name="Layer 1">
      <path class="cls-1" d="M36.06,84.5a14,14,0,0,1-.14-1.45c0-.35,0-.69,0-1C36,82.84,36,83.67,36.06,84.5Z"/>
      <path class="cls-1" d="M108.94,130.47c-.72-.09-1.44-.18-2.16-.29.29,0,.6,0,.9.07A10.71,10.71,0,0,1,108.94,130.47Z"/>
      <path class="cls-1" d="M122.51,28.46A13.11,13.11,0,0,1,106.16,34l-3-1.73a11.28,11.28,0,0,0,1.32.89,52.49,52.49,0,0,0-52.1.08,51.63,51.63,0,0,0-19.06,19l-.12.2A13.11,13.11,0,0,1,10.48,39.36l.12-.2a3.14,3.14,0,0,1,.18-.31A78.29,78.29,0,0,1,54.06,4a77.61,77.61,0,0,1,8.46-2.27A78.36,78.36,0,0,1,118,10.56l-.06.1A13.12,13.12,0,0,1,122.51,28.46Z"/>
      <path class="cls-2" d="M67.94,156.6a12.77,12.77,0,0,1-3.47-.92l-.23.4A78.77,78.77,0,0,1,1.6,94.8,77.6,77.6,0,0,1,.15,84.5C.08,83.67,0,82.84,0,82a13.4,13.4,0,0,1,12.6-13,12.94,12.94,0,0,1,9.21,3.13,13.08,13.08,0,0,1,4,6.31l.5.29a52.71,52.71,0,0,0,44.54,51.39c.72.11,1.44.2,2.16.29a12.22,12.22,0,0,1,4.75,2.18,12.83,12.83,0,0,1,5,9,13.38,13.38,0,0,1-.07,3.28A13.56,13.56,0,0,1,67.94,156.6Z"/>
      <path class="cls-1" d="M146.77,118l-.17.3a78.3,78.3,0,0,1-35.37,32h0a13.29,13.29,0,0,1-12.82-.92,13,13,0,0,1-4.73-5.54,13.31,13.31,0,0,1,5.81-17.25c.61-.26,1.21-.53,1.81-.81,1.16-.55,2.31-1.13,3.43-1.77a51.68,51.68,0,0,0,18.58-17.81,1.08,1.08,0,0,0-.08.19l.86-1.49a13.11,13.11,0,0,1,17.91-4.8,12,12,0,0,1,1.39.93l.2.15.25.21A13.11,13.11,0,0,1,146.67,118Z"/>
      <path class="cls-1" d="M185.52,156.69a8,8,0,0,1-6-2.45,8.37,8.37,0,0,1-2.38-6.09V90.33a8.4,8.4,0,0,1,2.38-6.09,8.62,8.62,0,0,1,12,0,8.44,8.44,0,0,1,2.38,6.09v13.16l-1-9.38a21.56,21.56,0,0,1,4-6,23.73,23.73,0,0,1,5.53-4.34A25.21,25.21,0,0,1,209,81.23a29.84,29.84,0,0,1,7-.84,10.75,10.75,0,0,1,7.07,2.38,7.12,7.12,0,0,1,2.87,5.6c0,3.08-.8,5.3-2.38,6.65a7.81,7.81,0,0,1-5.18,2,11.46,11.46,0,0,1-4.83-1,12,12,0,0,0-5-1,12.2,12.2,0,0,0-5.11,1.19,14.06,14.06,0,0,0-4.76,3.71,19.39,19.39,0,0,0-3.5,6.23,25.89,25.89,0,0,0-1.33,8.75v33.18a8.41,8.41,0,0,1-2.38,6.09A8,8,0,0,1,185.52,156.69Z"/>
      <path class="cls-1" d="M273.16,158.09q-11.91,0-20.65-5a34.17,34.17,0,0,1-13.44-13.51,39.41,39.41,0,0,1-4.69-19.32q0-12.6,5.11-21.49a36.16,36.16,0,0,1,13.37-13.65,34.52,34.52,0,0,1,17.5-4.76,31.87,31.87,0,0,1,13.51,2.94,37.17,37.17,0,0,1,11.27,8,39.43,39.43,0,0,1,7.77,11.83,36,36,0,0,1,2.87,14.28,7.21,7.21,0,0,1-2.66,5.46,8.91,8.91,0,0,1-5.88,2.1H243.76l-4.2-14h51.38l-3.08,2.8v-3.78a12.86,12.86,0,0,0-2.87-7.28,18.92,18.92,0,0,0-6.44-5.11,18.36,18.36,0,0,0-8.19-1.89,26.72,26.72,0,0,0-7.84,1.12,15,15,0,0,0-6.3,3.78,18.28,18.28,0,0,0-4.2,7.14,35.32,35.32,0,0,0-1.54,11.34A24.48,24.48,0,0,0,253.63,132a21.53,21.53,0,0,0,18.69,10.71,32.59,32.59,0,0,0,8.26-.84,18.4,18.4,0,0,0,5-2c1.26-.79,2.4-1.47,3.43-2a10.66,10.66,0,0,1,4.76-1.26,7.05,7.05,0,0,1,7.14,7q0,3.78-3.92,6.86a32.45,32.45,0,0,1-10.22,5.39A40.75,40.75,0,0,1,273.16,158.09Z"/>
      <path class="cls-1" d="M323.84,81.79a9.51,9.51,0,0,1,4.9,1.33,8.21,8.21,0,0,1,3.36,4l20.58,47-3.08,1.4,21-48.3Q373,81.66,378,81.93a7.71,7.71,0,0,1,5.67,2.17,7.36,7.36,0,0,1,2.17,5.39,7.1,7.1,0,0,1-.35,2.1c-.24.75-.49,1.45-.77,2.1l-26.18,57.68q-2.25,5-7.14,5.32a7.59,7.59,0,0,1-5.11-1,8.74,8.74,0,0,1-3.71-4.34l-26-57.68c-.19-.46-.4-1.07-.63-1.82a8.71,8.71,0,0,1-.35-2.66,7.37,7.37,0,0,1,2.24-5A7.76,7.76,0,0,1,323.84,81.79Z"/>
      <path class="cls-1" d="M406.44,72.69q-4.77,0-6.72-1.54t-2-5.46V63c0-2.7.72-4.55,2.17-5.53S403.59,56,406.57,56c3.27,0,5.56.52,6.87,1.54s2,2.85,2,5.46v2.66q0,4.07-2.1,5.53T406.44,72.69ZM415,148.15a8.41,8.41,0,0,1-2.38,6.09,8.62,8.62,0,0,1-12,0,8.37,8.37,0,0,1-2.38-6.09V90.33a8.4,8.4,0,0,1,2.38-6.09,8.62,8.62,0,0,1,12,0A8.44,8.44,0,0,1,415,90.33Z"/>
      <path class="cls-1" d="M433.73,81.79a8.49,8.49,0,0,1,6.86,3.5l46.76,58.1a7.78,7.78,0,0,1,1.82,5,8,8,0,0,1-2.66,6,8.21,8.21,0,0,1-12.74-1.12L427,95.23a8.11,8.11,0,0,1,.77-11.06A8.57,8.57,0,0,1,433.73,81.79Zm.14,75a8.85,8.85,0,0,1-5.53-2.17,6.49,6.49,0,0,1-2.73-5.25,8.21,8.21,0,0,1,2.1-5.32l21.42-26.18,8.4,14-16.94,21.42A8.09,8.09,0,0,1,433.87,156.83Zm46.62-75a7.71,7.71,0,0,1,5.67,2.31,7.24,7.24,0,0,1,2.31,5.25,9.65,9.65,0,0,1-.42,2.8,7,7,0,0,1-1.54,2.66l-21.14,25.76-8.82-12.18,17.22-22.82Q476.58,81.79,480.49,81.79Z"/>
    </g>
  </g>
</svg>