<svg xmlns="http://www.w3.org/2000/svg" viewBox="0 0 148.44 156.69"><defs><style>.cls-1{fill:#06539e;}.cls-2{fill:#fcd603;}</style></defs><g id="Layer_2" data-name="Layer 2"><g id="Layer_1-2" data-name="Layer 1"><path class="cls-1" d="M36.06,84.5a14,14,0,0,1-.14-1.45c0-.35,0-.69,0-1C36,82.84,36,83.67,36.06,84.5Z"/><path class="cls-1" d="M108.94,130.47c-.72-.09-1.44-.18-2.16-.29.29,0,.6,0,.9.07A10.71,10.71,0,0,1,108.94,130.47Z"/><path class="cls-1" d="M122.51,28.46A13.11,13.11,0,0,1,106.16,34l-3-1.73a11.28,11.28,0,0,0,1.32.89,52.49,52.49,0,0,0-52.1.08,51.63,51.63,0,0,0-19.06,19l-.12.2A13.11,13.11,0,0,1,10.48,39.36l.12-.2a3.14,3.14,0,0,1,.18-.31A78.29,78.29,0,0,1,54.06,4a77.61,77.61,0,0,1,8.46-2.27A78.36,78.36,0,0,1,118,10.56l-.06.1A13.12,13.12,0,0,1,122.51,28.46Z"/><path class="cls-2" d="M67.94,156.6a12.77,12.77,0,0,1-3.47-.92l-.23.4A78.77,78.77,0,0,1,1.6,94.8,77.6,77.6,0,0,1,.15,84.5C.08,83.67,0,82.84,0,82a13.4,13.4,0,0,1,12.6-13,12.94,12.94,0,0,1,9.21,3.13,13.08,13.08,0,0,1,4,6.31l.5.29a52.71,52.71,0,0,0,44.54,51.39c.72.11,1.44.2,2.16.29a12.22,12.22,0,0,1,4.75,2.18,12.83,12.83,0,0,1,5,9,13.38,13.38,0,0,1-.07,3.28A13.56,13.56,0,0,1,67.94,156.6Z"/><path class="cls-1" d="M146.77,118l-.17.3a78.3,78.3,0,0,1-35.37,32h0a13.29,13.29,0,0,1-12.82-.92,13,13,0,0,1-4.73-5.54,13.31,13.31,0,0,1,5.81-17.25c.61-.26,1.21-.53,1.81-.81,1.16-.55,2.31-1.13,3.43-1.77a51.68,51.68,0,0,0,18.58-17.81,1.08,1.08,0,0,0-.08.19l.86-1.49a13.11,13.11,0,0,1,17.91-4.8,12,12,0,0,1,1.39.93l.2.15.25.21A13.11,13.11,0,0,1,146.67,118Z"/></g></g></svg>